<?xml version="1.0" encoding="utf-8"?>
<!-- Generator: Adobe Illustrator 14.0.0, SVG Export Plug-In . SVG Version: 6.00 Build 43363)  -->
<!DOCTYPE svg PUBLIC "-//W3C//DTD SVG 1.1//EN" "http://www.w3.org/Graphics/SVG/1.1/DTD/svg11.dtd">
<svg version="1.1" xmlns="http://www.w3.org/2000/svg" xmlns:xlink="http://www.w3.org/1999/xlink" x="0px" y="0px" width="504px"
	 height="504px" viewBox="0 0 504 504" enable-background="new 0 0 504 504" xml:space="preserve">
<g id="Layer_4">
	<polygon fill="#48C2C5" points="288.5,45.5 74.5,392.5 293.5,382.5 	"/>
	<polygon fill="#48C2C5" points="303.5,164.5 308,379.5 434.5,373.5 	"/>
</g>
<g id="Layer_5">
	<path fill="#653614" d="M74.333,411.666c0,0,16,22,84,34c0,0,33.667,48.002,126.667,47.668c0,0,91.332,3.33,111.666-56.003
		c0,0,41.999-1.003,67.666-36.003C464.333,401.328,243,434.999,74.333,411.666z"/>
</g>
<g id="Layer_2">
	<polygon fill="#991B1E" points="284,11 173,34.5 284,36 	"/>
</g>
<g id="Layer_6">
	<path fill="#2F1010" d="M74.333,411.666c0,0,47.332,49.999,201.332,37.333c0,0,157.335,6.658,188.668-47.671s0,0,0,0
		S207.061,437.748,74.333,411.666"/>
</g>
<g id="Layer_3">
	<polyline fill="#2F1010" points="284,11 295,10.5 301.5,417.5 291,417.5 284,11 	"/>
</g>
</svg>
